#N canvas 933 339 600 400 10;
#X obj 50 40 netreceive -u -b 9000;
#X obj 50 80 oscparse;
#X obj 50 120 list trim;
#X obj 50 160 route midi raw;
#X obj 49 299 noteout;
#X obj 201 204 print RAW;
#X obj 50 200 unpack s i i i;
#X connect 0 0 1 0;
#X connect 1 0 2 0;
#X connect 2 0 3 0;
#X connect 3 0 5 0;
#X connect 3 0 6 0;
#X connect 6 2 4 0;
#X connect 6 3 4 1;
